<?xml version="1.0" encoding="UTF-8" standalone="no"?>
<!-- Created with Inkscape (http://www.inkscape.org/) -->

<svg
   xmlns:dc="http://purl.org/dc/elements/1.1/"
   xmlns:cc="http://creativecommons.org/ns#"
   xmlns:rdf="http://www.w3.org/1999/02/22-rdf-syntax-ns#"
   xmlns:svg="http://www.w3.org/2000/svg"
   xmlns="http://www.w3.org/2000/svg"
   xmlns:sodipodi="http://sodipodi.sourceforge.net/DTD/sodipodi-0.dtd"
   xmlns:inkscape="http://www.inkscape.org/namespaces/inkscape"
   width="210mm"
   height="297mm"
   viewBox="0 0 210 297"
   version="1.1"
   id="svg8"
   inkscape:version="0.92.4 (5da689c313, 2019-01-14)"
   sodipodi:docname="logo_i.svg">
  <defs
     id="defs2" />
  <sodipodi:namedview
     id="base"
     pagecolor="#ffffff"
     bordercolor="#666666"
     borderopacity="1.0"
     inkscape:pageopacity="0.0"
     inkscape:pageshadow="2"
     inkscape:zoom="0.01"
     inkscape:cx="-12408.629"
     inkscape:cy="1617.9635"
     inkscape:document-units="mm"
     inkscape:current-layer="g928"
     showgrid="false"
     inkscape:window-width="1920"
     inkscape:window-height="1057"
     inkscape:window-x="1912"
     inkscape:window-y="-7"
     inkscape:window-maximized="1" />
  <metadata
     id="metadata5">
    <rdf:RDF>
      <cc:Work
         rdf:about="">
        <dc:format>image/svg+xml</dc:format>
        <dc:type
           rdf:resource="http://purl.org/dc/dcmitype/StillImage" />
        <dc:title></dc:title>
      </cc:Work>
    </rdf:RDF>
  </metadata>
  <g
     inkscape:label="Layer 1"
     inkscape:groupmode="layer"
     id="layer1"
     style="display:inline">
    <circle
       cy="148.05617"
       cx="104.69477"
       id="ellipse857"
       style="opacity:1;fill:#4d4d4d;fill-opacity:1;stroke:#000000;stroke-width:0;stroke-miterlimit:4;stroke-dasharray:none;stroke-opacity:1"
       r="92.037003" />
  </g>
  <g
     inkscape:groupmode="layer"
     id="layer2"
     inkscape:label="Layer 2"
     style="display:inline">
    <ellipse
       style="opacity:1;fill:#f9f9f9;fill-opacity:1;stroke:#000000;stroke-width:0;stroke-miterlimit:4;stroke-dasharray:none;stroke-opacity:1"
       id="path910"
       cx="168.58286"
       cy="180.27203"
       rx="6.9490075"
       ry="7.2162771" />
    <ellipse
       ry="7.2162771"
       rx="6.9490075"
       cy="106.07394"
       cx="49.671535"
       id="ellipse912"
       style="opacity:1;fill:#f9f9f9;fill-opacity:1;stroke:#000000;stroke-width:0;stroke-miterlimit:4;stroke-dasharray:none;stroke-opacity:1" />
    <g
       id="g928"
       style="fill:#e6e6e6"
       transform="translate(36.358313,-173.08048)">
      <path
         inkscape:connector-curvature="0"
         d="m 49.791825,284.81761 c 1.577485,2.58416 2.5068,5.47217 3.36238,8.35573 1.307944,3.91834 1.776558,8.00899 2.046465,12.10794 0.186367,4.50604 0.233392,9.0215 0.112882,13.52984 -0.160586,4.17298 -0.996588,8.09133 -2.595346,11.93509 -2.083429,4.09601 -5.115922,7.61547 -7.875293,11.26352 -3.640154,4.86471 -7.166047,9.81062 -10.637205,14.79701 -0.416851,0.59883 -0.833702,1.19769 -1.250553,1.79655 0,0 -7.016941,3.04652 -7.016941,3.04652 v 0 c 0.43711,-0.60677 0.874221,-1.21352 1.311332,-1.82028 3.528477,-4.96385 7.064191,-9.92172 10.664681,-14.83329 2.674842,-3.60973 5.600022,-7.08099 7.780591,-11.02243 1.705719,-3.86699 2.630911,-7.4599 2.812479,-11.7184 0.128084,-4.48122 0.06403,-8.96768 -0.121084,-13.44673 -0.25332,-4.04421 -0.691446,-8.08326 -1.963875,-11.95464 -0.836629,-2.7649 -1.786988,-5.54903 -3.433593,-7.95187 0,0 6.80308,-4.08456 6.80308,-4.08456 z"
         id="path914"
         style="opacity:1;fill:#e6e6e6;fill-opacity:1;stroke:#000000;stroke-width:0;stroke-miterlimit:4;stroke-dasharray:none;stroke-opacity:1" />
      <path
         inkscape:connector-curvature="0"
         d="m 52.853006,292.62689 c 0.132284,2.92765 0.750639,5.79184 1.511488,8.6115 1.074547,4.49893 2.536711,8.86881 4.573302,13.02245 1.24497,2.27637 2.700419,4.44455 4.409728,6.40027 0.381648,0.43667 0.751544,0.88892 1.186651,1.27236 0.440484,0.38817 0.951799,0.68765 1.4277,1.03147 3.869846,2.29201 8.297997,2.63578 12.687612,2.79059 5.851041,-0.13031 11.890029,-2.59575 17.067269,-5.25331 1.256548,-1.16498 2.505706,-2.53545 2.628715,-0.54541 -0.418692,0.83486 -2.088623,1.92685 -5.778832,4.05237 -0.895586,0 3.20936,-2.08955 3.150117,-3.50696 3.191202,-2.44663 3.221875,-4.77396 5.352784,-7.3488 2.31465,-6.31263 -2.195084,-11.88844 -4.51902,-16.69822 -1.847051,-3.07059 -3.379197,-6.3854 -5.572979,-9.23896 -0.994442,-1.29352 -1.367864,-1.5459 -2.517225,-2.58484 -1.258898,-0.8885 -2.969122,-2.10979 -4.632417,-1.62568 -0.364938,0.1062 -0.695071,0.30774 -1.042607,0.46162 1.803728,-1.00756 3.545374,-2.13535 5.411187,-3.02268 0.561176,-0.26689 -1.005925,0.73337 -1.46893,1.14784 -2.264476,2.027 -3.646926,4.60047 -4.951391,7.29578 -2.29375,5.26799 -3.194238,10.92941 -3.591586,16.61864 0.01265,6.21725 2.494348,10.69951 5.960951,15.6351 2.037969,2.90578 4.683974,5.29577 6.954096,8.00309 1.293032,1.54207 1.530845,1.97482 2.636153,3.59841 1.769065,2.85406 2.588633,6.07269 2.74607,9.39657 -0.09342,3.4798 -1.818121,5.80869 -4.147677,8.21394 -5.292809,4.31048 -11.513515,7.43513 -17.860986,9.89023 -0.587126,0.20235 -1.174255,0.40468 -1.761384,0.60703 l 6.084173,-4.74027 v 0 c 0.569098,-0.2009 1.138198,-0.40182 1.707298,-0.60272 1.884722,-0.75287 2.129724,-0.81928 4.01112,-1.70461 0.693632,-0.32641 2.697197,-1.44684 2.063309,-1.01576 -1.482715,1.00838 -3.062092,1.86775 -4.620424,2.75479 -0.591717,0.33684 1.158732,-0.71639 1.719032,-1.10323 0.519999,-0.35902 1.013259,-0.75528 1.519888,-1.13292 2.293887,-2.17641 4.109715,-4.32515 4.362815,-7.60791 -0.07502,-3.19701 -0.778602,-6.30563 -2.438675,-9.07653 -1.168725,-1.77237 -1.149577,-1.84108 -2.54404,-3.5351 -2.262333,-2.74836 -4.859933,-5.21494 -6.947225,-8.11027 -3.483833,-5.08164 -6.096987,-9.74162 -6.188948,-16.09143 0.388141,-5.74538 1.234302,-11.47215 3.416278,-16.84279 0.954186,-2.13482 1.924037,-4.21289 3.378801,-6.0669 2.79477,-3.56179 6.602452,-5.19216 10.724547,-7.30607 0.408424,-0.0989 0.80736,-0.2526 1.225269,-0.29655 1.845636,-0.1941 3.535736,1.12816 4.864878,2.19628 1.133454,1.12583 1.524601,1.43166 2.507932,2.79107 2.126306,2.93949 3.683977,6.27165 5.528577,9.38241 2.34774,4.78295 4.54885,9.82324 3.84354,15.28067 -0.43424,2.24716 -0.87923,4.38811 -2.06644,6.38807 -2.78332,4.68879 -7.671159,6.89515 -12.296861,9.59766 -1.014701,0.55816 -2.005113,1.16295 -3.0441,1.67449 -5.308219,2.61348 -11.053001,4.43365 -17.004938,4.49204 -4.56181,-0.17962 -9.10677,-0.59383 -13.07271,-3.08366 -0.504373,-0.38275 -1.044009,-0.723 -1.51312,-1.14824 -2.299801,-2.08468 -4.093837,-5.25764 -5.624436,-7.91644 -2.034746,-4.19603 1.165763,-8.30402 0.0171,-12.82393 -0.810588,-2.82289 -4.208145,-6.43232 -4.509553,-9.36017 z"
         id="path924"
         style="opacity:1;fill:#e6e6e6;fill-opacity:1;stroke:#000000;stroke-width:0;stroke-miterlimit:4;stroke-dasharray:none;stroke-opacity:1"
         sodipodi:nodetypes="cccccccccccccsccccccccccccccccccccccccccccccsccccccsccccccc" />
    </g>
  </g>
</svg>
